<?xml version="1.0" encoding="utf-8"?>
<svg width="22px" height="23px" viewBox="0 0 22 23" version="1.1" xmlns:xlink="http://www.w3.org/1999/xlink" xmlns="http://www.w3.org/2000/svg">
  <desc>Created with Lunacy</desc>
  <g id="Group">
    <path d="M4 2L4 0L6 0L6 2L4 2ZM8 2L8 0L10 0L10 2L8 2ZM12 0L12 2L14 2L14 0L12 0ZM0 6L0 4L2 4L2 6L0 6ZM4 4L4 6L6 6L6 4L4 4ZM8 6L8 4L10 4L10 6L8 6ZM12 4L12 6L14 6L14 4L12 4ZM0 10L0 8L2 8L2 10L0 10ZM4 8L4 10L6 10L6 8L4 8ZM8 10L8 8L10 8L10 10L8 10Z" transform="translate(4 9)" id="Shape" fill-rule="evenodd" stroke="none" />
    <path d="M4 0L4 1L0 1L0 23L22 23L22 1L18 1L18 0L16 0L16 1L6 1L6 0L4 0ZM2 3L4 3L4 4L6 4L6 3L16 3L16 4L18 4L18 3L20 3L20 5L2 5L2 3ZM20 7L2 7L2 21L20 21L20 7Z" id="Combined-Shape" stroke="none" fill-rule="evenodd" />
  </g>
</svg>
